:SAMPLES-PER-SECOND 30
:FULLY-SPECIFIED
:DEGREES
78
root  17.0293 38.8968 30.6649 -178.609 -67.0679 173.863
RightUpLeg  14.5091 1.46205 -4.54933
RightLeg  20.8696 6.13853 2.25213
RightFoot  -18.9063 -0.199106 -1.02095
RightToes  5.82063e-011 0 -3.6325e-017
Spine  1.30952 2.21699 7.62581
Spine1  12.6161 4.43364 -6.6905
HEad  -6.45158 -6.07753 1.95274
LeftShoulder1  7.96556 -10.99 -47.9591
LeftArm  -9.99638 26.7993 -31.6789
LeftForeArm  30.104 -5.5554 -5.04635
LeftHand  -0.244104 0.0205437 5.32207
RightShoulder  6.4139 9.98984 41.3138
RightArm  15.2153 9.09108 36.8884
RightForeArm  1.45654 27.8372 5.84761
RightHand  -0.524255 -0.860134 -13.3875
LeftUpLeg  -18.1967 3.4065 4.14701
LeftLeg  13.1541 -0.93303 -0.100802
LeftFoot  7.06024 0.93983 -6.04832
LeftToes  1.2005e-010 6.1915e-012 3.32694e-011
79
root  15.5321 38.9209 30.5869 -177.285 -64.7536 172.402
RightUpLeg  13.1667 4.67921 -5.49824
RightLeg  26.2557 3.98723 1.92818
RightFoot  -15.4625 0.0367037 4.60552
RightToes  5.82063e-011 0 -3.6325e-017
Spine  1.38235 2.40536 5.22448
Spine1  12.5453 4.32275 -5.78731
HEad  -5.89872 -5.99824 2.60367
LeftShoulder1  7.96832 -10.9368 -48.1539
LeftArm  -9.89413 26.9112 -31.5957
LeftForeArm  30.7549 -5.63391 -5.06481
LeftHand  -0.244104 0.0205437 5.32207
RightShoulder  6.65854 10.1399 42.5006
RightArm  15.3518 7.1793 36.3492
RightForeArm  -0.71427 21.9639 5.41214
RightHand  -0.699281 0.279521 -14.3429
LeftUpLeg  -17.7919 5.27396 2.8651
LeftLeg  17.2785 -1.19318 -0.104517
LeftFoot  4.99929 0.716174 -5.18951
LeftToes  1.2005e-010 6.1915e-012 3.32694e-011
80
root  14.1363 39.1086 30.5212 -176.241 -62.2951 171.569
RightUpLeg  8.8363 5.8484 -6.86278
RightLeg  34.683 1.83324 1.07719
RightFoot  -7.19514 -0.313329 7.88158
RightToes  5.82063e-011 0 -3.6325e-017
Spine  1.52265 2.43858 3.56521
Spine1  11.9895 4.18771 -5.49652
HEad  -5.31778 -5.57071 2.82083
LeftShoulder1  8.07683 -11.1238 -48.1878
LeftArm  -9.70727 26.603 -31.2784
LeftForeArm  30.889 -6.03315 -5.13845
LeftHand  -0.244104 0.0205437 5.32207
RightShoulder  6.83971 10.3098 43.1601
RightArm  8.03613 5.09609 36.2005
RightForeArm  4.27347 14.037 7.55447
RightHand  -0.88643 1.33976 -15.4021
LeftUpLeg  -16.3838 7.60224 1.71723
LeftLeg  19.0238 -0.785108 0.0331628
LeftFoot  1.38062 0.489415 -4.46496
LeftToes  1.2005e-010 6.1915e-012 3.32694e-011
81
root  12.8595 39.3365 30.4582 -175.635 -59.7499 171.129
RightUpLeg  2.62807 5.96311 -7.99969
RightLeg  44.3467 -0.900919 -1.27339
RightFoot  2.93677 -0.743065 6.28389
RightToes  5.82063e-011 0 -3.6325e-017
Spine  2.11197 2.30436 2.24064
Spine1  11.2164 3.87159 -5.29718
HEad  -5.1561 -4.79643 2.33305
LeftShoulder1  8.25019 -11.4276 -48.2238
LeftArm  -9.31889 25.527 -30.5928
LeftForeArm  30.6783 -6.58399 -5.29887
LeftHand  -0.244104 0.0205437 5.32207
RightShoulder  6.92756 10.468 43.2225
RightArm  -0.5182 2.9055 36.1659
RightForeArm  11.2048 6.4992 8.68827
RightHand  -0.865444 1.14552 -15.448
LeftUpLeg  -14.1831 9.29243 0.770107
LeftLeg  18.9401 0.140013 0.372963
LeftFoot  -0.991762 0.336908 -3.6619
LeftToes  1.2005e-010 6.1915e-012 3.32694e-011
82
root  11.6746 39.5698 30.3583 -175.858 -57.4975 171.224
RightUpLeg  -3.33348 5.27271 -8.36025
RightLeg  52.4424 -2.95249 -4.47294
RightFoot  8.81079 -0.422381 2.62804
RightToes  5.82063e-011 0 -3.6325e-017
Spine  3.14288 1.91081 0.948726
Spine1  10.8108 3.15909 -4.556
HEad  -5.71425 -3.73169 1.35821
LeftShoulder1  8.29451 -11.5062 -48.2294
LeftArm  -8.94596 23.3075 -29.5358
LeftForeArm  30.359 -7.26662 -5.47853
LeftHand  -0.244104 0.0205437 5.32207
RightShoulder  7.00379 10.6224 43.22
RightArm  -1.58648 0.721539 35.7552
RightForeArm  13.6513 2.46495 8.14344
RightHand  -0.706812 0.211225 -14.6879
LeftUpLeg  -11.4895 10.5729 0.333522
LeftLeg  18.1203 0.942733 0.477712
LeftFoot  -2.18027 0.247954 -2.93546
LeftToes  1.2005e-010 6.1915e-012 3.32694e-011
83
root  10.507 39.8742 30.2213 -177.113 -55.7816 172.421
RightUpLeg  -8.24843 3.55147 -7.6797
RightLeg  57.2843 -3.71673 -6.624
RightFoot  8.91216 -0.136416 1.10898
RightToes  5.82063e-011 0 -3.6325e-017
Spine  4.1373 1.23937 0.458213
Spine1  10.8207 2.1676 -3.38117
HEad  -6.76596 -2.51187 0.368652
LeftShoulder1  8.13705 -11.2864 -48.0126
LeftArm  -8.8694 20.1032 -28.251
LeftForeArm  30.0207 -7.94664 -5.57046
LeftHand  -0.244104 0.0205437 5.32207
RightShoulder  7.04945 10.6819 43.3256
RightArm  -0.618638 -1.69182 34.507
RightForeArm  16.7988 1.63515 8.13233
RightHand  -0.623042 -0.209222 -13.9851
LeftUpLeg  -8.25396 11.4806 0.844076
LeftLeg  16.4214 1.891 0.135215
LeftFoot  -3.31705 0.198903 -2.55519
LeftToes  1.2005e-010 6.1915e-012 3.32694e-011
84
root  9.37581 40.1433 30.0554 -178.255 -54.1709 173.915
RightUpLeg  -12.6766 1.3269 -6.48723
RightLeg  58.6212 -3.40515 -6.48437
RightFoot  6.5818 -0.360024 2.58359
RightToes  5.82063e-011 0 -3.6325e-017
Spine  4.83336 0.630805 0.391727
Spine1  10.7904 1.26527 -2.39268
HEad  -7.60836 -1.47902 -0.352125
LeftShoulder1  7.9278 -11.0384 -47.5684
LeftArm  -9.16923 16.6786 -26.7939
LeftForeArm  29.5233 -8.60681 -5.51352
LeftHand  -0.244104 0.0205437 5.32207
RightShoulder  6.93449 10.523 43.087
RightArm  1.20662 -4.80125 33.0029
RightForeArm  19.0593 3.24286 8.43541
RightHand  -0.621591 0.0151279 -13.3903
LeftUpLeg  -5.21165 11.3257 1.71094
LeftLeg  14.3936 3.94199 -0.46754
LeftFoot  -4.67553 0.1688 -2.4162
LeftToes  1.2005e-010 6.1915e-012 3.32694e-011
85
root  8.28581 40.2795 29.8432 -178.597 -52.3173 174.838
RightUpLeg  -16.861 -0.61722 -5.14178
RightLeg  56.97 -2.90662 -5.25823
RightFoot  5.0251 -0.552925 4.06679
RightToes  5.82063e-011 0 -3.6325e-017
Spine  5.30143 0.255069 -0.0386088
Spine1  10.3656 0.56679 -1.67347
HEad  -7.84046 -0.61779 -0.788025
LeftShoulder1  7.77587 -10.9242 -47.015
LeftArm  -9.85561 13.7547 -25.0901
LeftForeArm  28.5262 -9.56351 -5.29721
LeftHand  -0.244104 0.0205437 5.32207
RightShoulder  6.65659 10.2016 42.2818
RightArm  2.86436 -8.44937 31.733
RightForeArm  19.118 5.81496 8.75109
RightHand  -0.610915 0.241176 -12.6487
LeftUpLeg  -2.87549 9.91528 2.20671
LeftLeg  12.9326 7.24175 -1.17467
LeftFoot  -5.90788 0.140762 -2.21725
LeftToes  1.2005e-010 6.1915e-012 3.32694e-011
86
root  7.1985 40.3701 29.5754 -178.842 -50.4916 175.547
RightUpLeg  -20.1306 -2.33223 -3.43091
RightLeg  52.5159 -3.10616 -4.70223
RightFoot  4.21258 -0.456401 3.54126
RightToes  5.82063e-011 0 -3.6325e-017
Spine  5.85469 -0.17606 -0.529105
Spine1  9.66453 -0.14828 -0.923932
HEad  -7.68132 0.325485 -0.956538
LeftShoulder1  7.62093 -10.819 -46.4011
LeftArm  -10.8476 11.4054 -23.0736
LeftForeArm  26.6354 -11.0205 -4.93664
LeftHand  -0.244104 0.0205437 5.32207
RightShoulder  6.37678 9.91113 41.318
RightArm  4.15827 -11.8974 30.6978
RightForeArm  16.9351 8.16611 8.80881
RightHand  -0.589849 0.250405 -12.2021
LeftUpLeg  -0.508033 8.42165 2.46545
LeftLeg  11.4484 10.4732 -1.96935
LeftFoot  -6.82587 0.118638 -1.96756
LeftToes  1.2005e-010 6.1915e-012 3.32694e-011
87
root  6.12123 40.411 29.2653 -179.323 -48.9951 176.191
RightUpLeg  -21.9222 -4.5011 -1.57598
RightLeg  45.3396 -3.61957 -4.23018
RightFoot  2.86658 -0.355389 3.02344
RightToes  5.82063e-011 0 -3.6325e-017
Spine  6.747 -0.79086 -0.887343
Spine1  8.99866 -0.99431 -0.212302
HEad  -7.57144 1.42792 -0.941774
LeftShoulder1  7.44221 -10.6626 -45.7948
LeftArm  -11.9863 9.22854 -20.7346
LeftForeArm  24.0725 -12.662 -4.5336
LeftHand  -0.244104 0.0205437 5.32207
RightShoulder  6.17148 9.70932 40.5388
RightArm  4.39917 -14.6597 29.7739
RightForeArm  14.2788 9.76843 8.49542
RightHand  -0.61963 0.394897 -12.4988
LeftUpLeg  2.11366 7.59629 2.60508
LeftLeg  10.0277 12.8071 -2.73507
LeftFoot  -8.09616 0.103496 -1.95886
LeftToes  1.2005e-010 6.1915e-012 3.32694e-011
88
root  5.05255 40.287 28.8912 -179.388 -47.7755 176.103
RightUpLeg  -22.4933 -7.55288 -0.104861
RightLeg  36.0701 -3.08011 -2.68566
RightFoot  1.49237 -0.433075 3.93616
RightToes  5.82063e-011 0 -3.6325e-017
Spine  7.6111 -1.36873 -1.77083
Spine1  8.57587 -1.80122 0.31107
HEad  -7.70433 2.42698 -0.881244
LeftShoulder1  7.33127 -10.5939 -45.3155
LeftArm  -13.1034 6.92724 -18.14
LeftForeArm  21.7623 -14.0842 -4.2222
LeftHand  -0.244104 0.0205437 5.32207
RightShoulder  5.97398 9.49093 39.8425
RightArm  2.74853 -16.8035 29.0185
RightForeArm  12.623 10.497 8.0133
RightHand  -0.693726 0.762471 -13.1767
LeftUpLeg  4.33384 7.13949 2.12398
LeftLeg  9.78705 14.4971 -3.07301
LeftFoot  -10.1834 0.0836348 -2.24583
LeftToes  1.2005e-010 6.1915e-012 3.32694e-011
89
root  3.96457 40.0793 28.4234 -178.895 -46.73 175.424
RightUpLeg  -22.4408 -11.7468 1.52154
RightLeg  25.3035 -0.301223 -0.683609
RightFoot  1.20372 -0.490796 4.53572
RightToes  5.82063e-011 0 -3.6325e-017
Spine  7.79446 -1.78715 -2.98346
Spine1  8.58374 -2.43211 0.85568
HEad  -7.94393 3.07828 -0.80956
LeftShoulder1  7.29171 -10.6266 -44.9531
LeftArm  -14.1065 4.49695 -15.5084
LeftForeArm  20.3211 -15.2577 -4.01948
LeftHand  -0.244104 0.0205437 5.32207
RightShoulder  5.7673 9.22924 39.1979
RightArm  -0.330272 -18.5597 28.4864
RightForeArm  11.2539 10.349 7.55076
RightHand  -0.753001 0.982836 -13.8136
LeftUpLeg  6.35408 6.81967 1.10528
LeftLeg  9.76767 15.7848 -3.17156
LeftFoot  -12.0332 0.0588688 -2.30175
LeftToes  1.2005e-010 6.1915e-012 3.32694e-011
90
root  2.86067 39.9268 27.8754 -178.323 -45.9392 174.94
RightUpLeg  -21.5829 -13.3777 2.30589
RightLeg  13.0212 0.5402 1.50519
RightFoot  1.41046 -0.460573 4.19761
RightToes  5.82063e-011 0 -3.6325e-017
Spine  7.25457 -2.12778 -3.60098
Spine1  9.03792 -2.92465 1.44224
HEad  -8.03027 3.30759 -0.683918
LeftShoulder1  7.21412 -10.5881 -44.5799
LeftArm  -15.1521 1.96388 -13.2133
LeftForeArm  19.595 -16.2165 -3.87643
LeftHand  -0.244104 0.0205437 5.32207
RightShoulder  5.62949 9.02144 38.8651
RightArm  -4.01425 -20.0785 28.0725
RightForeArm  9.4026 9.29056 7.11499
RightHand  -0.784236 0.922834 -14.5064
LeftUpLeg  8.72611 6.67869 0.278929
LeftLeg  8.5838 16.5839 -3.618
LeftFoot  -13.0309 0.0486898 -2.0272
LeftToes  1.2005e-010 6.1915e-012 3.32694e-011
91
root  1.72412 39.7147 27.235 -177.762 -45.5038 174.465
RightUpLeg  -19.3275 -4.87834 -1.58534
RightLeg  0.679148 -9.506 5.29633
RightFoot  0.661318 -0.497421 4.8135
RightToes  5.82063e-011 0 -3.6325e-017
Spine  6.50152 -2.40855 -3.81615
Spine1  9.50064 -3.26558 1.77947
HEad  -7.90519 3.07535 -0.58709
LeftShoulder1  7.07545 -10.4479 -44.1416
LeftArm  -16.3828 -0.662074 -11.6866
LeftForeArm  19.2358 -16.8981 -3.76902
LeftHand  -0.244104 0.0205437 5.32207
RightShoulder  5.59196 8.93101 38.8883
RightArm  -7.39872 -21.4512 27.7669
RightForeArm  7.35132 7.56426 6.5138
RightHand  -0.820969 0.9034 -15.2177
LeftUpLeg  11.1258 6.67963 -0.295086
LeftLeg  7.71593 16.6767 -4.18008
LeftFoot  -14.4835 0.0184397 -2.40044
LeftToes  1.2005e-010 6.1915e-012 3.32694e-011
92
root  0.542599 39.3607 26.4864 -177.274 -45.3115 173.676
RightUpLeg  -18.6604 -4.57245 -2.13125
RightLeg  -5.60653 -11.4967 6.63616
RightFoot  -1.17203 -0.596513 6.55494
RightToes  5.82063e-011 0 -3.6325e-017
Spine  5.99237 -2.54349 -4.15099
Spine1  9.68276 -3.40699 2.00705
HEad  -7.82028 2.44895 -0.664174
LeftShoulder1  6.95609 -10.3586 -43.6521
LeftArm  -17.5211 -3.07096 -11.2092
LeftForeArm  19.1107 -17.6705 -3.68701
LeftHand  -0.244104 0.0205437 5.32207
RightShoulder  5.60898 8.94737 38.9624
RightArm  -9.82384 -22.6315 27.6807
RightForeArm  6.13114 5.67223 5.75282
RightHand  -0.8645 1.10631 -15.5316
LeftUpLeg  13.3122 6.79515 -0.863226
LeftLeg  8.43716 16.0415 -4.3259
LeftFoot  -16.6926 -0.0759732 -3.76459
LeftToes  1.2005e-010 6.1915e-012 3.32694e-011
